<svg width="25" height="14" xmlns="http://www.w3.org/2000/svg"><path d="M13.726 13.931s.451-.049.682-.293c.212-.223.205-.644.205-.644s-.029-1.967.902-2.258c.917-.285 2.094 1.903 3.344 2.744.944.636 1.66.497 1.66.497l3.34-.046s1.746-.105.918-1.453c-.068-.11-.483-.998-2.482-2.82-2.094-1.907-1.813-1.598.708-4.898 1.536-2.009 2.15-3.236 1.958-3.76C24.778.498 23.649.63 23.649.63l-3.76.023s-.278-.037-.485.084c-.201.119-.332.396-.332.396s-.594 1.555-1.388 2.877c-1.674 2.79-2.343 2.937-2.617 2.764-.637-.404-.478-1.622-.478-2.488 0-2.704.418-3.83-.813-4.123-.408-.097-.709-.16-1.754-.171-1.342-.013-2.477.005-3.12.313-.428.205-.758.664-.556.69.248.033.81.149 1.109.548.385.514.372 1.67.372 1.67s.221 3.182-.518 3.577c-.506.271-1.2-.282-2.693-2.813-.764-1.297-1.342-2.73-1.342-2.73s-.11-.267-.31-.411C4.723.663 4.387.609 4.387.609L.815.63S.278.646.081.875c-.174.203-.013.624-.013.624s2.796 6.423 5.963 9.66c2.904 2.967 6.2 2.772 6.2 2.772h1.495z" fill="#FFF" fill-rule="evenodd"/></svg>